<?xml version="1.0" encoding="utf-8"?>
<!-- Generator: Adobe Illustrator 18.0.0, SVG Export Plug-In . SVG Version: 6.00 Build 0)  -->
<!DOCTYPE svg PUBLIC "-//W3C//DTD SVG 1.1//EN" "http://www.w3.org/Graphics/SVG/1.1/DTD/svg11.dtd">
<svg version="1.1" id="Layer_1" xmlns="http://www.w3.org/2000/svg" xmlns:xlink="http://www.w3.org/1999/xlink" x="0px" y="0px"
	 viewBox="0 0 1400 980" enable-background="new 0 0 1400 980" xml:space="preserve">
<g>
	<rect fill="#CEE4ED" width="1400" height="980"/>
	<rect y="738" fill="#A4CBDC" width="1400" height="92"/>
	<g>
		<rect x="46" y="102.8" fill="#AFD9EB" width="383.5" height="568.6"/>
		<rect x="508.2" y="102.8" fill="#AFD9EB" width="383.5" height="568.6"/>
		<rect x="970.5" y="102.8" fill="#AFD9EB" width="383.5" height="568.6"/>
	</g>
	<rect y="872" fill="#CB823F" width="1400" height="108"/>
	<path fill="#B97738" d="M310.4,891.8c0,42,174.4,76,389.6,76s389.6-34,389.6-76c0-6.9-4.7-13.5-13.4-19.8H323.7
		C315,878.3,310.4,885,310.4,891.8z"/>
	<rect x="464.6" y="921.8" fill="#2C2F30" width="470.7" height="35.3"/>
	<rect x="464.6" y="921.8" fill="#1C1F1F" width="470.7" height="19.1"/>
	<g>
		<path fill="#623619" d="M781.9,115.2c0,0-25-66.5-102.1-46.1s-131.6,64-124.8,176.5c4.3,71.2,17.5,146.7,4.4,217.5
			c-2.8,15.3-7.2,30.4-14.1,43.9c-3.3,6.5-7.2,12.5-11.6,18c-4.9,6.1-9.8,14.7-16.3,18.3c12.7,0.8,23.2-2.9,35.7,3.6
			c4,2.1,7.8,4.7,11.9,6.5c12.9,5.5,27.3,1.3,40.2-4.1c-0.3,3.5-1.3,6.9-3,9.8c16.3,0.7,31.1,10.4,46.7,16.2
			c60.9,22.8,126.9-13.6,190.3-4.1c-1-0.2-3.4-7.8-3-8.9c1-3.4,2.3-1.6,5-2.1c6.9-1.4,13.8-0.4,20.8-2.7
			c11.9-3.9,22.7-11.6,33.2-19.2c-2.4,0.2-4.9-0.3-7.2-1.4c-7.6-3.5-18-13.8-22.8-21.6c-10.6-17.2-14.6-39-15.3-59.9
			C847.6,386.4,897.6,99.8,781.9,115.2z"/>
		<path fill="#502A15" d="M687.8,137.3c-19.7-1.1-40.1-1.1-58,7.2c-11.5,5.4-21.3,13.9-29.8,23.3c-3.7,4.1-7.3,8.4-10,13.3
			c-4.1,7.5-5.9,15.9-7.6,24.2c-2.7,12.7-5.3,25.4-6.7,38.3c-1.5,14.2-1.4,28.6-1.3,42.9c0.4,50.8,0.7,101.7,1.1,152.5
			c3.7-9.4,7.5-18.8,11.2-28.3c1.8,29.7,3.1,61.7-13,86.7c5.1-6.5,10.2-13,15.3-19.5c-2.9,20.6-10.3,40.5-21.6,57.9
			c87.3,40.1,187.3,42.7,283,34.2c-13.5-11.8-21.4-29-25.2-46.6c-3.7-17.6-3.6-35.7-3.5-53.6c3.2,11.6,9.5,22.3,18,30.8
			c-8.2-30.1-10.8-61.7-7.5-92.7c2.4,5.4,4.8,10.8,7.2,16.2c0.4-41.3,0.8-82.7,1.1-124c0.2-16.6,0.3-33.3-1.9-49.8
			c-3.4-25.5-12.7-50.9-30.1-69.9C778.9,148.4,731.7,139.7,687.8,137.3z"/>
		<path fill="#F89E75" d="M748.9,475.8c-12.6-25.1-8.4-102.2-8.4-102.2l-36.9,0.8l-36.9-0.8c0,0,4.2,77.1-8.4,102.2
			c-12.6,25.1-52.8,34.4-52.8,34.4l0.8,36.9l97.2,61.2l97.2-61.2l0.8-36.9C801.7,510.1,761.4,500.9,748.9,475.8z"/>
		<path fill="#ED976B" d="M801.7,510.1c0,0-40.2-9.2-52.8-34.4c-10-20-9.4-72.9-8.7-93.7c-6.9-3.2-14-5.8-21.2-8.1l-15.3,0.3
			l-36.9-0.8c0,0,2.2,41.5-1.5,73.5c2.4-1,5.1-1.5,7.6-0.8c2.8,0.7,5.1,2.5,7.6,3.9c7.9,4.6,17.8,5.7,26.5,3
			c7.2-2.2,15.4-6.8,21.4-2.3c2,1.5,3.3,3.8,4.4,6c5.5,11,9.3,22.8,11.2,35c0.7,4.6,1,9.6-1.7,13.4c-2,2.9-5.4,4.4-8.6,5.9
			c-5.3,2.4-10.6,4.7-15.9,7.1c-1.1,0.5-2.2,1-2.9,2c-2,2.7,1,6.6,4.3,7.3c3.3,0.6,6.6-0.6,10-0.9c3.3-0.2,7.4,1.4,7.8,4.7
			c0.2,1.7-0.7,3.3-1.5,4.8c-4.5,7.6-10.2,14.4-16.8,20.2c-5.3,4.6-11.9,10.4-10.2,17.2c13.5,2.6,27.5-0.2,40.2-5.5
			c12.7-5.3,24.2-12.9,35.6-20.6c3.2-2.2,6.5-4.3,9.1-7.2c4.6-5.1,6.6-11.8,8.2-18.5L801.7,510.1z"/>
		<path fill="#FAAD7A" d="M706.7,96.5c-2-0.1-4.1-0.1-6.2,0c-122.2,6.3-120.2,111.2-120.2,127.7c0,16.6,16.4,112.6,37,155.2
			c12.5,25.9,41.6,55,62.6,63.8c15.3,6.4,32.1,6.4,47.4,0c21-8.8,50.1-37.9,62.6-63.8c20.5-42.6,37-138.6,37-155.2
			C826.9,207.7,828.9,102.8,706.7,96.5z"/>
		<path fill="#F2A672" d="M710.2,96.7l-28.4,10.4L705.1,219c0,0,80-11.7,92.4,35.7c12.3,46.9-15,183.8-103.1,192.4
			c11.1,1.7,22.4,0.4,33-4c21-8.8,50.1-37.9,62.6-63.8c20.5-42.6,37-138.6,37-155.2C826.9,207.9,828.8,104.9,710.2,96.7z"/>
		<path fill="#DBE9EC" d="M864.5,514.2L792,503.3c-20.9,43.2-75,62.2-88.4,65.2c-13.4-3.1-67.5-22-88.4-65.2l-72.5,10.9
			c-23.8,5.1-40.4,22.2-40.4,41.8l-44.4,306.3l245.7,2.6l236.7-2.6L904.9,556C904.9,536.4,888.3,519.3,864.5,514.2z"/>
		<g>
			<path fill="#F3F2ED" d="M624.9,496.8c0,0,32.9,43.8,78.7,72.3l-55.2,31.8c0,0-34.1-40.5-39.9-97.4L624.9,496.8z"/>
			<path fill="#F3F2ED" d="M782.3,496.8c0,0-32.9,43.8-78.7,72.3l55.2,31.8c0,0,34.1-40.5,39.9-97.4L782.3,496.8z"/>
		</g>
		<path fill="#623619" d="M758.8,102.8c0,0-51.5-47.1-138.9,4.3c-83,48.8-48.8,147.8-45.1,157.7c4,31.4,16.3,84.4,16.3,84.4
			c4.3-8.7,7.5-29.1,10-50c3.5-29.8,26-53.8,55.5-59.4c98.2-18.6,131.4-70.6,131.4-70.6c24.6,60,30.3,119.1,30.3,119.1
			C866.7,127.2,758.8,102.8,758.8,102.8z"/>
		<path fill="#784324" d="M788.4,120.4c0.9,1.2,15.6,0.9,18.6,2.5c4.2,2.3,8.2,6.3,12,9.2c10.3,7.7,18.1,18.4,21.8,30.7
			c-5.8-7.7-12.9-14.5-20.8-20c4.3,4.2,7.9,9,10.9,14.2c3.1,7.5,5.5,15.6,7.7,23.4c1.3,4.5,2.3,9.1,3.1,13.8
			c0.6,3.5-0.2,11.1,1.5,14c-3-5.2-5.2-10.8-6.5-16.6c2.1,14.1,3.1,28.5,2.8,42.8c-7.1-26.6-14.4-53.7-29.7-76.6
			c1,18.4,2,36.9,3,55.3c-4.2-22.6-13.2-44.3-26.1-63.2c7.4,2.5,12.9,8.5,18,14.3c-5.1-11.8-11.3-23.1-18.4-33.8
			c6.7,3.1,12.5,7.9,18.3,12.6C799.2,135.4,793.8,127.9,788.4,120.4z"/>
		<path fill="#784324" d="M581.9,133.8c5.5-3.5,11.1-7.1,16.6-10.6c-15.5,13.2-24.3,32.9-28.1,52.9c-3.8,20-3,40.6-2,60.9
			c7.6-50.1,35.9-99.7,82.2-120.5c6.5-2.9,13.3-5.3,20.2-7.4c30.8-9.4,66-13,93.6,3.6c-14.3-16.4-37.6-24.5-59-20.6
			c19.1-7.7,41.9-5.3,59,6.2c-9.6-16.7-31.8-20-50.9-21.4c-20.7-1.5-42.4-2.6-61.1,6.2c6.9-0.1,13.8-0.2,20.8-0.3
			C639,93,603,105.4,581.9,133.8z"/>
		<path fill="#784324" d="M767,119.4c0,0-27.1,31.4-57.4,40.1c-30.3,8.7-100.2,47.7-115.3,97.5c0,0-1.6-60.1,55.8-103.4
			c0,0-25.5,15.2-46,36.8c0,0,18.4-50.4,92.6-71.5l-21.3,15.2l-1.4,1C673.9,135.1,715.6,111.9,767,119.4z"/>
		<path fill="#784324" d="M721,164C692.5,174,677,181.7,647.9,201c-4.4,2.9-16.1,13.2-28.2,26.1c38.1-28.5,69.8-38,101-47.8
			c-9.8-2.3-20,1-29.5,4.3c8-3.7,15.9-7.3,23.9-11c21.6-10,45.3-22.1,53.3-44.5C749,148,723.1,162.6,695.7,167
			C704.2,167.7,712.8,165.9,721,164z"/>
		<path fill="#784324" d="M780,138.9c0,0-19.5,53.1-72.6,67.7c-53.1,14.6-91.5,35.7-104,57.9c0,0,11.4-31.4,56.9-50.4
			c0,0-29.2,7.6-45.5,22.7c0,0,26.5-26.5,73.6-40.1c47.1-13.5,69.9-48.2,69.9-48.2s-12.5,27.6-30.3,39
			C728,187.7,762.2,170.3,780,138.9z"/>
		<path fill="#002239" d="M894.9,518.6l-62.3-14.9L703.8,760.1L574.6,503.5l-62,15.1c-24.4,6-33.2,21.6-41.3,46.8l-85.5,282.3
			c-6.5,36.1,19.1,69.7,53.3,69.7h264.7h257.2c33.5,0,59-32.4,53.5-68.1l-78.3-283.9C928.9,537.8,919.4,524.6,894.9,518.6z"/>
		<path fill="#27292A" d="M812.3,138.4c-12.4-15.4-31.5-25.2-50.2-31.4c-36.7-12.2-76.6-12.2-113.3,0c-18.7,6.2-37.8,16-50.2,31.4
			c-23.4,29.1-28.1,100.7-28.1,100.7l13.7,1.4c0,0,8.1-52.6,25.3-79.7c24-37.8,95.9-37.8,95.9-37.8s71.9,0,95.9,37.8
			c17.2,27.1,25.3,79.7,25.3,79.7l13.7-1.4C840.4,239.2,835.7,167.5,812.3,138.4z"/>
		<path fill="#2D2F34" d="M832.2,233.3c-2.8-15-10.9-53.4-25.2-76.1c-25.6-40.4-98.4-40.9-101.5-40.9c-3.1,0-75.9,0.5-101.5,40.9
			c-14.4,22.6-22.5,61-25.2,76.1l-1-0.1c1.8-17.9,8.2-68.4,26.1-90.6c9.9-12.3,25.7-22.1,47.1-29.2c17.6-5.8,35.9-8.8,54.6-8.8
			c18.6,0,37,3,54.6,8.8c21.4,7.1,37.2,16.9,47.1,29.2c17.9,22.2,24.3,72.8,26.1,90.6L832.2,233.3z"/>
		<path fill="#ADADAD" d="M746.9,410.9l64.9-11.3c8.4-1.5,14.5-8.7,14.5-17.3v-43.2h6.6v43.2c0,11.8-8.5,21.8-20,23.8L748,417.5
			c-1.8,0.3-3.5-0.9-3.8-2.7C743.9,413,745.1,411.2,746.9,410.9z"/>
		<rect x="824.8" y="343.8" fill="#15161B" width="9.8" height="28.8"/>
		<g>
			<path fill="#404147" d="M580.5,236.2l-15,1.1l0.7,9.7c-3,10.2-4.3,27.1-2.9,45.9c1.4,18.9,5,35.4,9.5,45.1l0.7,9.6l14.7-1.1
				c0.1,0,0.2,0,0.3,0c7.9-0.6,12.5-25.7,10.3-56.2C596.5,259.9,588.4,235.6,580.5,236.2z"/>
			<path fill="#949599" d="M576.1,236.5l-4.4,0.3c7.9-0.6,16.1,23.7,18.3,54.1c2.2,30.1-2.3,55-10,56.1l3.8-0.3c0.1,0,0.2,0,0.3,0
				c7.9-0.6,12.5-25.7,10.3-56.2C592.2,260.2,584,235.9,576.1,236.5z"/>
			<path fill="#949599" d="M583.7,291.4c2.2,30.5-2.4,55.6-10.3,56.2s-28.5-5-32.2-53.1c-3.6-46.1,16.3-56.6,24.2-57.2
				C573.4,236.7,581.5,260.9,583.7,291.4z"/>
			<path fill="#ADADAD" d="M576.8,293c2,27.2-2.6,49.7-10.1,50.2c-7.5,0.5-21.7-20.3-23.6-47.5s9-50.4,16.5-51
				C567.1,244.2,574.8,265.8,576.8,293z"/>
		</g>
		<g>
			<path fill="#404147" d="M830.2,236.2l15,1.1l-0.7,9.7c3,10.2,4.3,27.1,2.9,45.9s-5,35.4-9.5,45.1l-0.7,9.6l-14.7-1.1
				c-0.1,0-0.2,0-0.3,0c-7.9-0.6-12.5-25.7-10.3-56.2C814.1,259.9,822.3,235.6,830.2,236.2z"/>
			<path fill="#949599" d="M834.6,236.5l4.4,0.3c-7.9-0.6-16.1,23.7-18.3,54.1c-2.2,30.1,2.3,55,10,56.1l-3.8-0.3
				c-0.1,0-0.2,0-0.3,0c-7.9-0.6-12.5-25.7-10.3-56.2C818.5,260.2,826.7,235.9,834.6,236.5z"/>
			<path fill="#949599" d="M826.9,291.4c-2.2,30.5,2.4,55.6,10.3,56.2c7.9,0.6,28.5-5,32.2-53.1c3.6-46.1-16.3-56.6-24.2-57.2
				C837.3,236.7,829.1,260.9,826.9,291.4z"/>
			<path fill="#ADADAD" d="M833.9,293c-2,27.2,2.6,49.7,10.1,50.2c7.5,0.5,21.7-20.3,23.6-47.5s-9-50.4-16.5-51
				C843.6,244.2,835.9,265.8,833.9,293z"/>
		</g>
		
			<ellipse transform="matrix(-0.9903 0.1389 -0.1389 -0.9903 1516.1355 728.2397)" fill="#15161B" cx="732.6" cy="417" rx="17.5" ry="13.5"/>
		<g>
			<path fill="#FFFFFF" d="M623,296.5c0,0,7.7,11.6,23.8,12.3s26.5-1.1,26.5-1.1s-0.7-6.8-7.4-12.6c-6.7-5.8-12.4-6.7-19.4-6.8
				C639.5,288.3,623,296.5,623,296.5z"/>
			<path fill="#2F1511" d="M660.7,295c-0.2-1.5-0.6-3-1.4-4.2c-4.1-1.9-8.2-2.4-12.8-2.4c-1.3,0-2.9,0.3-4.7,0.7
				c-1.8,2.1-2.9,5-2.5,8c0.6,5.9,5.9,10.2,11.8,9.6C656.9,306.1,661.3,300.9,660.7,295z"/>
			<circle cx="650.1" cy="296.2" r="3.8"/>
			<circle fill="#FFFFFF" cx="653.1" cy="293" r="1.6"/>
			<circle fill="#FFFFFF" cx="647.2" cy="298.7" r="1.1"/>
			<g>
				<path fill="#170B0B" d="M669.3,308.2c-0.1,0-0.3,0-0.4,0C669.1,308.2,669.2,308.2,669.3,308.2z"/>
				<path fill="#170B0B" d="M624.3,296.5c0,0,17.3-7.6,28.2-6.9c14.3,0.9,20.4,16.2,20.4,16.2s-4-18.8-20.7-19.3
					c-7.4-0.2-14.6,1.4-20.4,3.2c-5.4-0.5-9-3.4-9-3.4c1.6,2.3,5.1,4.1,5.1,4.1c-6.3,0.9-12-2.9-12-2.9c3.2,3.8,8.1,4.6,8.1,4.6
					c-10,1-16.3-3.2-16.3-3.2c4.7,4.3,11.9,5.8,11.9,5.8s11,13,21.5,14.2c9.8,1.1,23.8-0.2,28-0.7c-5.2,0.5-25.8,2.2-35.1-3.6
					C633.9,304.6,627,300.9,624.3,296.5z"/>
				<path fill="#170B0B" d="M669.5,308.2c0.4,0,0.7-0.1,0.7-0.1S669.9,308.1,669.5,308.2z"/>
				<path fill="#170B0B" d="M669.3,308.2c0,0,0.1,0,0.1,0C669.4,308.2,669.4,308.2,669.3,308.2z"/>
			</g>
		</g>
		<g>
			<path fill="#FFFFFF" d="M783.5,296.5c0,0-7.7,11.6-23.8,12.3s-26.5-1.1-26.5-1.1s0.7-6.8,7.4-12.6c6.7-5.8,12.4-6.7,19.4-6.8
				C767,288.3,783.5,296.5,783.5,296.5z"/>
			<path fill="#2F1511" d="M745.8,295c0.2-1.5,0.6-3,1.4-4.2c4.1-1.9,8.2-2.4,12.8-2.4c1.3,0,2.9,0.3,4.7,0.7c1.8,2.1,2.9,5,2.5,8
				c-0.6,5.9-5.9,10.2-11.8,9.6C749.5,306.1,745.2,300.9,745.8,295z"/>
			<circle cx="756.4" cy="296.2" r="3.8"/>
			<circle fill="#FFFFFF" cx="758.7" cy="293" r="1.6"/>
			<circle fill="#FFFFFF" cx="753" cy="298.9" r="1.1"/>
			<g>
				<path fill="#170B0B" d="M737.1,308.2c0.1,0,0.3,0,0.4,0C737.4,308.2,737.3,308.2,737.1,308.2z"/>
				<path fill="#170B0B" d="M782.2,296.5c0,0-17.3-7.6-28.2-6.9c-14.3,0.9-20.4,16.2-20.4,16.2s4-18.8,20.7-19.3
					c7.4-0.2,14.6,1.4,20.4,3.2c5.4-0.5,9-3.4,9-3.4c-1.6,2.3-5.1,4.1-5.1,4.1c6.3,0.9,12-2.9,12-2.9c-3.2,3.8-8.1,4.6-8.1,4.6
					c10,1,16.3-3.2,16.3-3.2c-4.7,4.3-11.9,5.8-11.9,5.8s-11,13-21.5,14.2c-9.8,1.1-23.8-0.2-28-0.7c5.2,0.5,25.8,2.2,35.1-3.6
					C772.6,304.6,779.5,300.9,782.2,296.5z"/>
				<path fill="#170B0B" d="M737,308.2c-0.4,0-0.7-0.1-0.7-0.1S736.6,308.1,737,308.2z"/>
				<path fill="#170B0B" d="M737.1,308.2c0,0-0.1,0-0.1,0C737.1,308.2,737.1,308.2,737.1,308.2z"/>
			</g>
		</g>
		<path fill="#623619" d="M671.2,265.4c0,0-5.9,0.5-7.7,0.7c-1.8,0.2-34-4-41.6-1.4c-2.2,0.8-14.3,13.7-14.3,13.7s9.7-9,16.6-9.8
			c6.9-0.8,33.1,4.6,36.8,4.2C664.6,272.5,671.2,265.4,671.2,265.4z"/>
		<path fill="#623619" d="M732.6,265.9c0,0,6,0.5,7.8,0.7c1.8,0.2,32.5-5.5,41.5-2.1c2.2,0.8,14.5,13.5,14.5,13.5s-9.8-8.8-16.7-9.5
			c-6.9-0.7-33,5.2-36.7,4.9C739.4,273,732.6,265.9,732.6,265.9z"/>
		<path fill="#C97D48" d="M721,299.5c0,0-7,13.3-4.7,26.9c1.6,10,3.1,18.5,5,25.1c1.9,6.6-11.1,13.6-11.1,13.6s11.4-6.4,8.5-16.8
			C715.8,337.9,710,316.8,721,299.5z"/>
		<g>
			<path fill="#852609" d="M665.8,382.9c0,0,23.6-1.3,36,2.4c0,0,19.1-4.2,37.6-3.1c0,0-16.9,19.3-34.9,20.2
				C686.5,403.3,665.8,382.9,665.8,382.9z"/>
			<path fill="#FFFFFF" d="M702.8,385.7l-31.4-2.9c0,0,1.5,3.1,12.2,6.6c10.7,3.5,19.2,4.1,19.2,4.1s8.5-0.6,19.2-4.1
				c10.7-3.5,12.2-6.6,12.2-6.6L702.8,385.7z"/>
			<g>
				<path fill="#DA4627" d="M720.5,380.4c-8.7-1.1-17.8,1.9-17.8,1.9s-9.1-3-17.8-1.9c-8.7,1.1-22.7,1.6-22.7,1.6s9.5,1.1,22.7,3.2
					c13.2,2.1,17.3,3.9,17.3,3.9s5-1.8,18.2-3.9c13.2-2.1,22.7-3.2,22.7-3.2S729.2,381.4,720.5,380.4z"/>
				<g>
					<path fill="#DA4627" d="M665,382.8l0.6,0C665.2,382.8,665,382.8,665,382.8z"/>
					<path fill="#DA4627" d="M740,382.8l0.6,0C740.6,382.8,740.3,382.8,740,382.8z"/>
					<path fill="#DA4627" d="M718.4,393.6c-9.9,4.6-15.8,4.2-15.8,4.2s-5.5,0.4-15.4-4.2c-5.7-2.6-10.9-6-14.4-8.3
						c-2.9-1.9-6.3-3.1-9.8-3.3l0,0c1,0.1,2.9,0.8,4.5,3.9c2.2,4.2,8.5,10.8,15.6,16.6c5,4.1,12.7,5.8,16.9,6.4
						c1.9,0.3,3.8,0.3,5.7,0c4.1-0.6,11.9-2.3,16.9-6.4c7.1-5.8,13.4-12.4,15.6-16.6c1.6-3.1,3.5-3.7,4.5-3.9l0,0
						c-3.6,0.2-7,1.4-9.8,3.3C729.3,387.7,724,391,718.4,393.6z"/>
				</g>
			</g>
		</g>
	</g>
	<g>
		<path fill="#2C2F30" d="M982.1,579.6H417.9c-9.8,0-17.8,7.8-17.8,17.4l11.6,316.6c0,9.6,8,17.4,17.8,17.4h541.1
			c9.8,0,17.8-7.8,17.8-17.4L999.9,597C999.9,587.4,991.9,579.6,982.1,579.6z"/>
		<path fill="#38393A" d="M982.1,585.8H417.9c-9.8,0-17.8,7.6-17.8,17.1l11.6,311c0,9.4,8,17.1,17.8,17.1h541.1
			c9.8,0,17.8-7.6,17.8-17.1l11.6-311C999.9,593.5,991.9,585.8,982.1,585.8z"/>
		<polygon fill="#565758" points="431.1,911.4 419.7,652.3 980.3,652.3 968.9,911.4 		"/>
	</g>
	<rect x="645.3" y="748.4" fill="#2C2F30" width="109.5" height="231.6"/>
	<rect x="650" y="761.5" fill="#38393A" width="100" height="218.5"/>
	<g>
		<path fill="#2C2F30" d="M493.4,809.5L493.4,809.5c-1.5,0-2.7,1.2-2.7,2.7v59c0,1.5,1.2,2.7,2.7,2.7h0c1.5,0,2.7-1.2,2.7-2.7v-59
			C496.2,810.7,494.9,809.5,493.4,809.5z"/>
		<path fill="#2C2F30" d="M502.5,809.5L502.5,809.5c-1.5,0-2.7,1.2-2.7,2.7v59c0,1.5,1.2,2.7,2.7,2.7h0c1.5,0,2.7-1.2,2.7-2.7v-59
			C505.2,810.7,504,809.5,502.5,809.5z"/>
		<path fill="#2C2F30" d="M511.5,809.5L511.5,809.5c-1.5,0-2.7,1.2-2.7,2.7v59c0,1.5,1.2,2.7,2.7,2.7h0c1.5,0,2.7-1.2,2.7-2.7v-59
			C514.2,810.7,513,809.5,511.5,809.5z"/>
		<path fill="#2C2F30" d="M520.5,809.5L520.5,809.5c-1.5,0-2.7,1.2-2.7,2.7v59c0,1.5,1.2,2.7,2.7,2.7h0c1.5,0,2.7-1.2,2.7-2.7v-59
			C523.2,810.7,522,809.5,520.5,809.5z"/>
		<path fill="#2C2F30" d="M529.5,809.5L529.5,809.5c-1.5,0-2.7,1.2-2.7,2.7v59c0,1.5,1.2,2.7,2.7,2.7l0,0c1.5,0,2.7-1.2,2.7-2.7v-59
			C532.3,810.7,531,809.5,529.5,809.5z"/>
		<path fill="#2C2F30" d="M538.6,809.5L538.6,809.5c-1.5,0-2.7,1.2-2.7,2.7v59c0,1.5,1.2,2.7,2.7,2.7l0,0c1.5,0,2.7-1.2,2.7-2.7v-59
			C541.3,810.7,540.1,809.5,538.6,809.5z"/>
		<path fill="#2C2F30" d="M547.6,809.5L547.6,809.5c-1.5,0-2.7,1.2-2.7,2.7v59c0,1.5,1.2,2.7,2.7,2.7l0,0c1.5,0,2.7-1.2,2.7-2.7v-59
			C550.3,810.7,549.1,809.5,547.6,809.5z"/>
		<path fill="#2C2F30" d="M556.6,809.5L556.6,809.5c-1.5,0-2.7,1.2-2.7,2.7v59c0,1.5,1.2,2.7,2.7,2.7h0c1.5,0,2.7-1.2,2.7-2.7v-59
			C559.3,810.7,558.1,809.5,556.6,809.5z"/>
		<path fill="#2C2F30" d="M565.6,809.5L565.6,809.5c-1.5,0-2.7,1.2-2.7,2.7v59c0,1.5,1.2,2.7,2.7,2.7h0c1.5,0,2.7-1.2,2.7-2.7v-59
			C568.4,810.7,567.1,809.5,565.6,809.5z"/>
		<path fill="#2C2F30" d="M574.7,809.5L574.7,809.5c-1.5,0-2.7,1.2-2.7,2.7v59c0,1.5,1.2,2.7,2.7,2.7h0c1.5,0,2.7-1.2,2.7-2.7v-59
			C577.4,810.7,576.2,809.5,574.7,809.5z"/>
		<path fill="#2C2F30" d="M583.7,809.5L583.7,809.5c-1.5,0-2.7,1.2-2.7,2.7v59c0,1.5,1.2,2.7,2.7,2.7h0c1.5,0,2.7-1.2,2.7-2.7v-59
			C586.4,810.7,585.2,809.5,583.7,809.5z"/>
		<path fill="#2C2F30" d="M592.7,809.5L592.7,809.5c-1.5,0-2.7,1.2-2.7,2.7v59c0,1.5,1.2,2.7,2.7,2.7h0c1.5,0,2.7-1.2,2.7-2.7v-59
			C595.4,810.7,594.2,809.5,592.7,809.5z"/>
	</g>
	<g>
		<path fill="#2C2F30" d="M802.5,809.5L802.5,809.5c-1.5,0-2.7,1.2-2.7,2.7v59c0,1.5,1.2,2.7,2.7,2.7h0c1.5,0,2.7-1.2,2.7-2.7v-59
			C805.2,810.7,803.9,809.5,802.5,809.5z"/>
		<path fill="#2C2F30" d="M811.5,809.5L811.5,809.5c-1.5,0-2.7,1.2-2.7,2.7v59c0,1.5,1.2,2.7,2.7,2.7h0c1.5,0,2.7-1.2,2.7-2.7v-59
			C814.2,810.7,813,809.5,811.5,809.5z"/>
		<path fill="#2C2F30" d="M820.5,809.5L820.5,809.5c-1.5,0-2.7,1.2-2.7,2.7v59c0,1.5,1.2,2.7,2.7,2.7h0c1.5,0,2.7-1.2,2.7-2.7v-59
			C823.2,810.7,822,809.5,820.5,809.5z"/>
		<path fill="#2C2F30" d="M829.5,809.5L829.5,809.5c-1.5,0-2.7,1.2-2.7,2.7v59c0,1.5,1.2,2.7,2.7,2.7h0c1.5,0,2.7-1.2,2.7-2.7v-59
			C832.2,810.7,831,809.5,829.5,809.5z"/>
		<path fill="#2C2F30" d="M838.5,809.5L838.5,809.5c-1.5,0-2.7,1.2-2.7,2.7v59c0,1.5,1.2,2.7,2.7,2.7l0,0c1.5,0,2.7-1.2,2.7-2.7v-59
			C841.3,810.7,840,809.5,838.5,809.5z"/>
		<path fill="#2C2F30" d="M847.6,809.5L847.6,809.5c-1.5,0-2.7,1.2-2.7,2.7v59c0,1.5,1.2,2.7,2.7,2.7l0,0c1.5,0,2.7-1.2,2.7-2.7v-59
			C850.3,810.7,849.1,809.5,847.6,809.5z"/>
		<path fill="#2C2F30" d="M856.6,809.5L856.6,809.5c-1.5,0-2.7,1.2-2.7,2.7v59c0,1.5,1.2,2.7,2.7,2.7l0,0c1.5,0,2.7-1.2,2.7-2.7v-59
			C859.3,810.7,858.1,809.5,856.6,809.5z"/>
		<path fill="#2C2F30" d="M865.6,809.5L865.6,809.5c-1.5,0-2.7,1.2-2.7,2.7v59c0,1.5,1.2,2.7,2.7,2.7h0c1.5,0,2.7-1.2,2.7-2.7v-59
			C868.3,810.7,867.1,809.5,865.6,809.5z"/>
		<path fill="#2C2F30" d="M874.6,809.5L874.6,809.5c-1.5,0-2.7,1.2-2.7,2.7v59c0,1.5,1.2,2.7,2.7,2.7h0c1.5,0,2.7-1.2,2.7-2.7v-59
			C877.4,810.7,876.1,809.5,874.6,809.5z"/>
		<path fill="#2C2F30" d="M883.7,809.5L883.7,809.5c-1.5,0-2.7,1.2-2.7,2.7v59c0,1.5,1.2,2.7,2.7,2.7h0c1.5,0,2.7-1.2,2.7-2.7v-59
			C886.4,810.7,885.2,809.5,883.7,809.5z"/>
		<path fill="#2C2F30" d="M892.7,809.5L892.7,809.5c-1.5,0-2.7,1.2-2.7,2.7v59c0,1.5,1.2,2.7,2.7,2.7h0c1.5,0,2.7-1.2,2.7-2.7v-59
			C895.4,810.7,894.2,809.5,892.7,809.5z"/>
		<path fill="#2C2F30" d="M901.7,809.5L901.7,809.5c-1.5,0-2.7,1.2-2.7,2.7v59c0,1.5,1.2,2.7,2.7,2.7h0c1.5,0,2.7-1.2,2.7-2.7v-59
			C904.4,810.7,903.2,809.5,901.7,809.5z"/>
	</g>
</g>
</svg>
